<?xml version="1.0" encoding="UTF-8"?>
<!DOCTYPE svg PUBLIC "-//W3C//DTD SVG 1.1//EN" "http://www.w3.org/Graphics/SVG/1.1/DTD/svg11.dtd">
<!-- Creator: CorelDRAW -->
<svg xmlns="http://www.w3.org/2000/svg" xml:space="preserve"
     width="100%" height="100%"
     style="shape-rendering:geometricPrecision; text-rendering:geometricPrecision; image-rendering:optimizeQuality; fill-rule:evenodd; clip-rule:evenodd"
viewBox="0 0 210 297"
 xmlns:xlink="http://www.w3.org/1999/xlink"
 enable-background="new 0 0 255.1 141.7">
 <defs>
  <font id="FontID0" font-variant="normal" style="fill-rule:nonzero" font-style="normal" font-weight="400">
	<font-face
		font-family="Arial">
	</font-face>
   <missing-glyph><path d="M0 0z"/></missing-glyph>
   <glyph unicode="," horiz-adv-x="277"><path d="M88.8314 0l0 100.17 100.17 0 0 -100.17c0,-36.8507 -6.4843,-66.5084 -19.4883,-89.1503 -13.1812,-22.5002 -33.8388,-40.0043 -62.0084,-52.5122l-24.5199 37.6657c18.5316,8.14967 32.1735,20.1616 41.0318,35.8231 8.8229,15.8387 13.6418,38.5161 14.634,68.1738l-49.8193 0z"/></glyph>
   <glyph unicode=" " horiz-adv-x="277"></glyph>
   <glyph unicode="I" horiz-adv-x="277"><path d="M93.3314 0l0 715.825 94.6779 0 0 -715.825 -94.6779 0z"/></glyph>
   <glyph unicode="A" horiz-adv-x="666"><path d="M-1.4882 0l274.998 715.825 101.977 0 292.998 -715.825 -108.001 0 -83.481 216.817 -299.341 0 -78.4849 -216.817 -100.666 0zm206.506 293.991l242.825 0 -74.8352 198.179c-22.6773,60.1658 -39.6854,109.666 -50.6697,148.501 -9.17724,-45.9925 -22.0041,-91.4889 -38.6578,-136.844l-78.662 -209.836z"/></glyph>
   <glyph unicode="C" horiz-adv-x="722"><path d="M587.839 251.01l94.8196 -24.0238c-19.8427,-77.6699 -55.6658,-136.985 -107.15,-177.982 -51.6618,-40.8547 -114.662,-61.158 -189.356,-61.158 -77.1384,0 -139.82,15.6615 -188.151,46.9846 -48.3311,31.5002 -85.1818,76.9967 -110.339,136.489 -25.1577,59.6698 -37.8428,123.662 -37.8428,192.013 0,74.5163 14.1733,139.501 42.6972,194.99 28.4884,55.5241 68.9887,97.6897 121.643,126.497 52.5122,28.8427 110.339,43.1933 173.517,43.1933 71.6462,0 131.812,-18.1773 180.675,-54.6737 48.8272,-36.4964 82.8077,-87.6621 101.977,-153.852l-93.1543 -22.0041c-16.6891,52.1933 -40.6775,90.0007 -72.3549,113.847 -31.5002,23.8466 -71.1502,35.6814 -119.162,35.6814 -54.9926,0 -100.808,-13.1812 -137.836,-39.5082 -36.9924,-26.5041 -63.0005,-61.8312 -77.8116,-106.335 -15.0237,-44.3271 -22.5002,-90.1779 -22.5002,-137.34 0,-60.9808 8.8229,-113.989 26.5041,-159.486 17.823,-45.3547 45.3193,-79.3353 82.8077,-101.835 37.5239,-22.5002 78.0242,-33.6617 121.678,-33.6617 53.0083,0 97.8315,15.3072 134.682,45.8153 36.8153,30.6853 61.654,76.1817 74.6581,136.348z"/></glyph>
   <glyph unicode="E" horiz-adv-x="666"><path d="M79.1581 0l0 715.825 517.504 0 0 -84.5085 -422.826 0 0 -219.155 396.003 0 0 -83.977 -396.003 0 0 -243.675 439.48 0 0 -84.5085 -534.158 0z"/></glyph>
   <glyph unicode="D" horiz-adv-x="722"><path d="M77.1738 0l0 715.825 246.51 0c55.6658,0 98.1504,-3.5079 127.489,-10.3111 40.9964,-9.3544 76.0045,-26.5041 104.989,-51.1658 37.6657,-32.0317 66.0123,-72.6738 84.6857,-122.351 18.8151,-49.6776 28.1695,-106.335 28.1695,-170.151 0,-54.3548 -6.34257,-102.509 -19.1694,-144.497 -12.6851,-42.024 -28.8427,-76.8549 -48.8626,-104.351 -19.8072,-27.4963 -41.4925,-49.1461 -65.1619,-64.843 -23.4923,-15.8033 -51.9807,-27.8152 -85.3235,-36.0003 -33.4845,-8.14967 -71.8234,-12.1536 -115.017,-12.1536l-258.309 0zm94.6425 84.5085l152.859 0c47.1618,0 84.3314,4.32287 111.154,13.1458 26.823,8.85834 48.1539,21.1891 64.1698,37.1696 22.5002,22.3584 40.0043,52.6894 52.5122,90.4968 12.4725,38.02 18.8151,83.8353 18.8151,138.013 0,74.8352 -12.3308,132.344 -36.8153,172.49 -24.6616,40.3586 -54.4965,67.1816 -89.6818,80.8589 -25.3348,9.81504 -66.3312,14.634 -122.493,14.634l-150.521 0 0 -546.807z"/></glyph>
   <glyph unicode="P" horiz-adv-x="666"><path d="M77.1738 0l0 715.825 270.002 0c47.4807,0 83.8353,-2.3386 108.816,-6.83864 35.1853,-5.81107 64.6659,-16.9726 88.5125,-33.4845 23.6695,-16.3348 42.8389,-39.5082 57.3312,-68.9887 14.4922,-29.6931 21.6498,-62.1855 21.6498,-97.6897 0,-60.8391 -19.3112,-112.501 -57.969,-154.667 -38.835,-41.9885 -108.851,-63.1422 -210.013,-63.1422l-183.686 0 0 -291.014 -94.6425 0zm94.6425 375.487l185.175 0c61.158,0 104.67,11.3387 130.359,34.1932 25.6537,22.8191 38.4806,54.8154 38.4806,96.1661 0,29.9766 -7.51187,55.6658 -22.6773,76.9967 -15.1655,21.3309 -34.9727,35.327 -59.8115,42.1657 -16.0159,4.1457 -45.3547,6.30714 -88.3353,6.30714l-183.19 0 0 -255.829z"/></glyph>
   <glyph unicode="T" horiz-adv-x="610"><path d="M259.337 0l0 631.316 -235.844 0 0 84.5085 567.323 0 0 -84.5085 -236.801 0 0 -631.316 -94.6779 0z"/></glyph>
   <glyph unicode="S" horiz-adv-x="666"><path d="M45.0004 229.998l89.3275 7.83077c4.18114,-35.8231 13.9962,-65.1619 29.516,-88.1582 15.4844,-22.9962 39.4728,-41.4925 72.0006,-55.6658 32.4924,-14.1733 69.1659,-21.1537 109.808,-21.1537 36.1775,0 68.032,5.315 95.67,15.9804 27.6734,10.8426 48.3311,25.512 61.8312,44.1854 13.5001,18.8151 20.3387,39.1539 20.3387,61.2997 0,22.5002 -6.4843,42.024 -19.6655,58.8548 -13.004,16.8308 -34.4766,30.827 -64.3115,42.1657 -19.3466,7.51187 -61.6895,19.1694 -127.525,35.0081 -65.658,15.8387 -111.828,30.6498 -138.155,44.646 -34.1577,17.8584 -59.6698,40.1814 -76.5006,66.6856 -16.6537,26.5041 -25.0159,56.1619 -25.0159,89.1503 0,36.0003 10.1694,69.8391 30.6853,101.162 20.4805,31.5002 50.4925,55.3469 89.8235,71.6817 39.5082,16.1576 83.1621,24.3427 131.351,24.3427 53.15,0 99.8157,-8.504 140.493,-25.6892 40.5003,-17.008 71.6462,-42.1657 93.5086,-75.3313 21.6498,-33.1656 33.4845,-70.8313 35.1499,-112.82l-90.8157 -6.83864c-5.03154,45.1775 -21.508,79.5124 -49.6776,102.509 -28.1695,23.1734 -69.662,34.6538 -124.655,34.6538 -57.3666,0 -99.0008,-10.4883 -125.363,-31.5002 -26.1498,-21.012 -39.331,-46.3468 -39.331,-75.8274 0,-25.8309 9.3544,-47.0201 27.8506,-63.4966 18.319,-16.6891 65.8352,-33.6617 142.832,-51.024 76.9967,-17.4686 129.828,-32.6341 158.493,-45.6382 41.6696,-19.3466 72.4966,-43.6893 92.3393,-73.0281 19.8427,-29.4805 29.6577,-63.4966 29.6577,-101.8 0,-38.1972 -10.8426,-74.0203 -32.6695,-107.682 -21.8269,-33.6617 -53.15,-59.8469 -94.0047,-78.662 -40.8192,-18.6734 -86.8117,-27.9923 -137.836,-27.9923 -64.8076,0 -119.162,9.31897 -162.816,28.3112 -43.8311,18.8505 -78.166,47.1618 -103.182,85.1818 -24.8033,37.8428 -37.9846,80.8235 -39.1539,128.658z"/></glyph>
   <glyph unicode="g" horiz-adv-x="556"><path d="M49.8193 -43.0161l85.5007 -12.6497c3.5079,-26.327 13.5001,-45.4964 29.6931,-57.6501 21.8269,-16.193 51.6618,-24.3427 89.3275,-24.3427 40.8192,0 72.1423,8.14967 94.3236,24.3427 22.1813,16.2993 36.9924,39.1539 44.8232,68.3155 4.6772,18.0001 6.6969,55.4886 6.34257,112.82 -38.3389,-45.1421 -86.1739,-67.8194 -143.505,-67.8194 -71.3273,0 -126.497,25.6537 -165.509,77.1738 -38.9767,51.3429 -58.6422,113.174 -58.6422,184.998 0,49.5004 9.00007,95.174 26.823,136.985 18.0001,41.8468 44.0082,74.162 77.9888,97.0165 34.016,22.6773 74.0203,34.1577 119.836,34.1577 61.1934,0 111.686,-24.8388 151.336,-74.3392l0 62.5044 81.1778 0 0 -448.161c0,-80.6817 -8.32684,-138.013 -24.6616,-171.675 -16.5119,-33.6617 -42.52,-60.343 -78.166,-79.8313 -35.6814,-19.4883 -79.5124,-29.3388 -131.67,-29.3388 -61.8312,0 -111.828,13.9962 -149.848,41.8468 -38.1617,27.8152 -56.4808,69.662 -55.1697,125.647zm72.6738 311.53c0,-67.9966 13.5001,-117.674 40.6775,-148.856 27.0002,-31.3231 60.8391,-46.8075 101.481,-46.8075 40.3586,0 74.1974,15.4844 101.517,46.4886 27.3191,31.1459 40.9964,79.8313 40.9964,146.34 0,63.4966 -13.9962,111.332 -42.1657,143.505 -28.1695,32.138 -62.1501,48.3311 -101.835,48.3311 -39.0121,0 -72.1777,-15.8387 -99.674,-47.6933 -27.3191,-31.642 -40.9964,-78.8392 -40.9964,-141.308z"/></glyph>
   <glyph unicode="f" horiz-adv-x="277"><path d="M86.8471 0l0 450.181 -77.5282 0 0 68.3155 77.5282 0 0 55.1697c0,34.831 3.15357,60.8391 9.31897,77.6699 8.504,22.8191 23.3506,41.3153 44.6815,55.4886 21.3309,14.1733 51.1658,21.1891 89.6464,21.1891 24.6616,0 52.0162,-2.83467 81.9928,-8.85834l-13.1458 -76.6423c-18.1773,3.33073 -35.5042,4.9961 -51.839,4.9961 -26.6813,0 -45.4964,-5.66934 -56.5162,-17.1852 -11.1615,-11.3387 -16.6537,-32.6695 -16.6537,-63.9926l0 -47.835 100.985 0 0 -68.3155 -100.985 0 0 -450.181 -87.4849 0z"/></glyph>
   <glyph unicode="m" horiz-adv-x="833"><path d="M66.0123 0l0 518.496 78.4849 0 0 -72.6738c16.3348,25.3348 38.02,45.8508 65.0202,61.1934 27.0002,15.4844 57.8272,23.3151 92.3039,23.3151 38.3389,0 69.8391,-8.00794 94.359,-23.9884 24.6616,-16.0159 41.9885,-38.1617 51.9807,-66.8273 41.1736,60.4847 94.5007,90.8157 160.159,90.8157 51.5201,0 91.0283,-14.3151 118.666,-42.8389 27.6734,-28.4884 41.5279,-72.3195 41.5279,-131.493l0 -355.999 -87.3432 0 0 326.66c0,35.1853 -2.83467,60.5202 -8.504,76.0045 -5.8465,15.3426 -16.1576,27.8506 -31.0042,37.3468 -14.9883,9.31897 -32.6695,14.1379 -52.8311,14.1379 -36.4964,0 -66.6501,-12.1536 -90.8157,-36.4964 -24.0238,-24.1655 -36.1775,-63.0005 -36.1775,-116.328l0 -301.325 -87.8393 0 0 336.829c0,39.1539 -7.15754,68.4927 -21.508,88.0164 -14.3151,19.4883 -37.6657,29.3034 -70.3352,29.3034 -24.6616,0 -47.4807,-6.4843 -68.4927,-19.6655 -21.012,-12.9686 -36.3192,-31.9963 -45.6736,-56.9768 -9.49614,-25.1577 -14.1733,-61.3351 -14.1733,-108.497l0 -269.01 -87.8038 0z"/></glyph>
   <glyph unicode="l" horiz-adv-x="222"><path d="M63.9926 0l0 715.825 87.8393 0 0 -715.825 -87.8393 0z"/></glyph>
   <glyph unicode="o" horiz-adv-x="556"><path d="M33.1656 259.337c0,95.9889 26.6813,167.175 80.1502,213.344 44.5043,38.3035 98.859,57.6501 163.029,57.6501 71.3273,0 129.651,-23.3151 174.828,-70.158 45.3193,-46.6657 67.8194,-111.19 67.8194,-193.502 0,-66.8273 -9.9922,-119.34 -29.9766,-157.501 -20.0198,-38.3389 -49.1815,-67.9966 -87.3432,-89.1857 -38.3389,-21.1537 -80.0085,-31.642 -125.328,-31.642 -72.4966,0 -131.174,23.1734 -175.997,69.8391 -44.8586,46.4886 -67.1816,113.493 -67.1816,201.155zm90.3196 0c0,-66.5084 14.5277,-116.186 43.5122,-149.174 29.0199,-33.1656 65.5163,-49.6776 109.347,-49.6776 43.6539,0 79.9731,16.6891 108.993,49.8547 28.8427,33.1656 43.335,83.8353 43.335,151.832 0,64.1698 -14.4922,112.82 -43.6893,145.844 -29.1616,32.9884 -65.3037,49.5004 -108.639,49.5004 -43.8311,0 -80.3274,-16.5119 -109.347,-49.3587 -28.9845,-32.8113 -43.5122,-82.4888 -43.5122,-148.82z"/></glyph>
   <glyph unicode="n" horiz-adv-x="556"><path d="M66.0123 0l0 518.496 78.9809 0 0 -73.6659c38.1617,57.0123 93.1897,85.5007 165.013,85.5007 31.3231,0 59.9887,-5.66934 86.1739,-16.8308 26.327,-11.3387 45.8153,-26.0081 58.8194,-44.3271 13.1812,-18.1773 22.1813,-39.8271 27.4963,-64.843 3.15357,-16.3348 4.85437,-44.8232 4.85437,-85.5007l0 -318.829 -88.0164 0 0 315.499c0,35.6814 -3.33073,62.5044 -10.1694,80.3274 -6.83864,17.6812 -18.9923,31.8546 -36.3192,42.3429 -17.5041,10.6654 -37.8428,15.9804 -61.3351,15.9804 -37.5239,0 -69.662,-11.9765 -97.0165,-35.6459 -27.1774,-23.8466 -40.6775,-68.847 -40.6775,-135.32l0 -283.183 -87.8038 0z"/></glyph>
   <glyph unicode="d" horiz-adv-x="556"><path d="M402.346 0l0 65.5163c-32.8467,-51.5201 -81.1778,-77.1738 -145.029,-77.1738 -41.3153,0 -79.2998,11.3387 -113.989,34.1577 -34.6538,22.6773 -61.4769,54.4965 -80.6463,95.4929 -19.0277,40.8547 -28.5238,87.6621 -28.5238,140.848 0,51.6618 8.68117,98.6464 25.8309,140.812 17.3623,42.1657 43.1933,74.5163 77.6699,96.8393 34.5121,22.5002 73.1699,33.8388 115.832,33.8388 31.1813,0 58.9965,-6.66147 83.3392,-19.8427 24.5199,-13.1458 44.3271,-30.3309 59.6698,-51.4847l0 256.821 87.3432 0 0 -715.825 -81.4967 0zm-277.833 258.841c0,-66.5084 13.9962,-116.186 41.9885,-148.997 27.9923,-32.8467 61.0162,-49.3587 99.1779,-49.3587 38.3035,0 70.973,15.8387 97.8315,47.1972 26.823,31.3231 40.3232,79.3353 40.3232,143.824 0,71.0084 -13.6773,122.989 -40.9964,156.155 -27.3545,33.3428 -61.0162,49.8547 -101.162,49.8547 -39.0121,0 -71.6817,-16.0159 -97.8315,-47.835 -26.1852,-31.8546 -39.331,-82.1699 -39.331,-150.84z"/></glyph>
   <glyph unicode="i" horiz-adv-x="222"><path d="M66.3312 614.662l0 101.162 88.0164 0 0 -101.162 -88.0164 0zm0 -614.662l0 518.496 88.0164 0 0 -518.496 -88.0164 0z"/></glyph>
   <glyph unicode="a" horiz-adv-x="556"><path d="M404.33 63.9926c-32.6695,-27.6734 -63.9926,-47.1618 -94.0047,-58.6422 -30.1538,-11.3387 -62.5044,-17.008 -96.9811,-17.008 -57.0123,0 -100.666,13.819 -131.351,41.6696 -30.5081,27.8152 -45.8153,63.4966 -45.8153,106.654 0,25.512 5.66934,48.65 17.3269,69.662 11.4804,21.012 26.6459,37.8428 45.3193,50.4925 18.8505,12.6851 39.8271,22.3584 63.3548,28.8427 17.1497,4.50004 43.1578,9.00007 77.9888,13.1812 71.0084,8.504 123.343,18.4962 156.828,30.3309 0.354333,11.9765 0.496067,19.6655 0.496067,22.8191 0,35.8231 -8.32684,61.158 -24.9805,75.6856 -22.3584,19.9844 -55.843,29.8349 -100.028,29.8349 -41.3153,0 -71.8234,-7.19297 -91.6661,-21.6852 -19.6655,-14.4922 -34.1577,-40.146 -43.6539,-76.9967l-85.8196 11.8347c7.83077,36.6735 20.6576,66.5084 38.4806,89.0086 17.8584,22.6419 43.8311,40.146 77.6699,52.3351 33.8388,12.1536 72.9927,18.319 117.674,18.319 44.3271,0 80.1502,-5.315 107.824,-15.6615 27.6734,-10.4883 48.0122,-23.4923 61.158,-39.331 13.004,-15.8387 22.0041,-35.6814 27.3545,-59.8469 2.83467,-14.9883 4.32287,-41.9885 4.32287,-81.0006l0 -117.143c0,-81.851 1.84253,-133.513 5.66934,-155.021 3.68507,-21.6498 11.1615,-42.4846 22.1813,-62.3273l-91.8432 0c-9.00007,18.1773 -14.9883,39.5082 -17.5041,63.9926zm-7.3347 196.336c-31.9963,-13.1458 -79.8313,-24.1655 -143.505,-33.3428 -36.142,-5.13784 -61.8312,-10.9843 -76.6423,-17.4686 -15.0237,-6.51974 -26.6813,-16.0159 -34.6892,-28.701 -8.14967,-12.4725 -12.3308,-26.327 -12.3308,-41.6342 0,-23.5277 9.00007,-43.0161 26.6813,-58.6776 17.6458,-15.5198 43.6539,-23.3506 77.8116,-23.3506 33.8388,0 64.0281,7.3347 90.355,22.1813 26.327,14.8466 45.8153,35.1499 58.1461,60.8391 9.49614,19.8427 14.1733,49.1461 14.1733,87.8393l0 32.3152z"/></glyph>
   <glyph unicode="c" horiz-adv-x="500"><path d="M404.33 189.994l86.3511 -11.3387c-9.3544,-59.4926 -33.5199,-106.158 -72.5321,-139.82 -38.7995,-33.6617 -86.6345,-50.4925 -143.328,-50.4925 -70.8313,0 -127.985,23.1734 -171.001,69.4848 -43.1578,46.3468 -64.8076,112.855 -64.8076,199.49 0,56.0201 9.31897,105.024 27.8152,147.013 18.6734,41.9885 46.8429,73.4888 84.8274,94.5007 37.8428,21.012 79.1935,31.5002 123.662,31.5002 56.339,0 102.509,-14.3151 138.19,-42.8389 35.8231,-28.4884 58.8194,-68.8116 68.9887,-121.324l-85.5007 -13.1812c-8.14967,34.831 -22.5002,61.0162 -43.1578,78.662 -20.6576,17.5041 -45.6736,26.3624 -75.0124,26.3624 -44.3271,0 -80.3274,-15.8387 -108.001,-47.6933 -27.6734,-31.642 -41.4925,-81.8156 -41.4925,-150.485 0,-69.662 13.3229,-120.332 40.1814,-152.009 26.6459,-31.5002 61.4769,-47.339 104.493,-47.339 34.4766,0 63.1777,10.6654 86.3156,31.8546 23.1734,21.1537 37.8428,53.6461 44.0082,97.6543z"/></glyph>
   <glyph unicode="e" horiz-adv-x="556"><path d="M420.842 166.997l90.8157 -11.1615c-14.3151,-53.1855 -40.8192,-94.3236 -79.477,-123.662 -38.835,-29.1616 -88.3353,-43.8311 -148.501,-43.8311 -75.8628,0 -136.029,23.3151 -180.356,69.9809 -44.5043,46.6657 -66.6501,112.182 -66.6501,196.513 0,87.3432 22.5002,154.985 67.3234,203.175 45.0004,48.1539 103.182,72.3195 174.828,72.3195 69.3431,0 126.001,-23.6695 169.832,-70.8313 44.0082,-47.1618 66.0123,-113.67 66.0123,-199.171 0,-5.315 -0.177167,-13.1458 -0.496067,-23.4923l-386.684 0c3.189,-57.0123 19.3466,-100.666 48.3311,-130.82 29.0199,-30.3664 65.0202,-45.5319 108.355,-45.5319 32.1735,0 59.6698,8.504 82.4888,25.512 22.8191,16.8308 40.8192,43.8311 54.1776,81.0006zm-288.498 142.159l289.49 0c-3.8268,43.5122 -14.9883,76.3589 -33.1656,98.0086 -27.9923,33.8388 -64.347,50.8469 -108.851,50.8469 -40.3232,0 -74.3037,-13.5001 -101.8,-40.5003 -27.5317,-27.0002 -42.6972,-63.1777 -45.6736,-108.355z"/></glyph>
   <glyph unicode="u" horiz-adv-x="556"><path d="M405.818 0l0 76.1817c-40.5003,-58.6776 -95.3157,-87.8393 -164.659,-87.8393 -30.5081,0 -59.1737,5.81107 -85.6424,17.5041 -26.5041,11.6576 -46.1697,26.5041 -59.032,44.15 -12.9686,17.823 -21.9687,39.5082 -27.1419,65.1619 -3.5079,17.3269 -5.35044,44.6815 -5.35044,82.1699l0 321.168 87.8393 0 0 -287.506c0,-45.9925 1.84253,-76.8195 5.35044,-92.8354 5.6339,-23.138 17.3269,-41.1381 35.1499,-54.4965 18.0001,-13.1458 40.1814,-19.6655 66.5084,-19.6655 26.327,0 50.9886,6.66147 74.162,20.1616 23.1734,13.5001 39.5082,31.9963 49.0043,55.1697 9.6733,23.3506 14.4922,57.1894 14.4922,101.339l0 277.833 87.8393 0 0 -518.496 -78.5203 0z"/></glyph>
   <glyph unicode="v" horiz-adv-x="500"><path d="M210.013 0l-197.364 518.496 92.8354 0 111.332 -310.502c12.0119,-33.4845 23.0317,-68.3155 33.201,-104.493 7.83077,27.3191 18.6379,60.1658 32.6341,98.6819l115.336 316.314 90.355 0 -196.336 -518.496 -81.9928 0z"/></glyph>
   <glyph unicode="s" horiz-adv-x="500"><path d="M30.827 154.844l86.8471 13.6418c4.81894,-34.831 18.4962,-61.4769 40.8192,-80.1502 22.1813,-18.4962 53.3272,-27.8506 93.5086,-27.8506 40.3232,0 70.3352,8.36227 89.8235,24.697 19.5238,16.4765 29.3388,35.8231 29.3388,57.8272 0,19.9844 -8.68117,35.5042 -26.0081,46.9846 -11.9765,7.83077 -41.9885,17.6812 -89.8235,29.6577 -64.347,16.3348 -109.17,30.3664 -134.009,42.3429 -24.8388,11.8347 -43.8311,28.3467 -56.6579,49.3232 -12.8269,21.012 -19.3466,44.1854 -19.3466,69.5202 0,23.1734 5.35044,44.5043 16.0159,64.1698 10.4883,19.8427 24.9805,36.142 43.1578,49.1461 13.6773,10.0276 32.3506,18.6734 55.843,25.6892 23.6695,6.98037 49.0043,10.4883 76.0045,10.4883 40.6421,0 76.3234,-5.98824 107.15,-17.6812 30.827,-11.6576 53.5044,-27.4963 68.1738,-47.4807 14.6694,-20.1616 24.6616,-46.8429 30.1538,-80.3274l-85.8196 -11.8347c-4.00397,26.6459 -15.3426,47.4807 -34.016,62.5044 -18.6379,14.9883 -45.1421,22.5002 -79.2998,22.5002 -40.3586,0 -69.1659,-6.66147 -86.3511,-20.0198 -17.3269,-13.3229 -26.0081,-28.9845 -26.0081,-46.8075 0,-11.5158 3.68507,-21.6852 10.8426,-30.8624 7.15754,-9.49614 18.319,-17.1497 33.6617,-23.4923 8.8229,-3.15357 34.6892,-10.6654 77.6699,-22.323 62.1855,-16.6891 105.485,-30.1892 130.005,-40.8547 24.6616,-10.4883 44.0082,-25.9726 58.0044,-46.1342 13.9962,-20.197 20.9765,-45.1775 20.9765,-75.1896 0,-29.3388 -8.64574,-56.8351 -25.6537,-82.8432 -17.1497,-25.8309 -41.8468,-45.8153 -73.9848,-59.9887 -32.1735,-14.1733 -68.6698,-21.1537 -109.347,-21.1537 -67.5005,0 -118.843,13.9962 -154.171,41.9885 -35.327,27.9923 -57.8272,69.4848 -67.5005,124.513z"/></glyph>
   <glyph unicode="t" horiz-adv-x="277"><path d="M257.848 78.662l12.6497 -77.6699c-24.6616,-5.17327 -46.8429,-7.83077 -66.3312,-7.83077 -31.9963,0 -56.6579,4.9961 -74.3392,15.1655 -17.5041,9.9922 -29.8349,23.3506 -36.9924,39.8271 -7.15754,16.3348 -10.8426,51.024 -10.8426,103.678l0 298.349 -64.4887 0 0 68.3155 64.4887 0 0 128.517 87.5204 52.654 0 -181.171 88.3353 0 0 -68.3155 -88.3353 0 0 -303.168c0,-25.1931 1.4882,-41.1736 4.50004,-48.3311 3.15357,-7.19297 8.14967,-12.8623 15.1655,-17.1852 6.98037,-4.1457 16.9726,-6.34257 29.9766,-6.34257 9.85047,0 22.6773,1.1693 38.6932,3.5079z"/></glyph>
   <glyph unicode="r" horiz-adv-x="333"><path d="M64.9848 0l0 518.496 79.0164 0 0 -78.4849c20.1616,36.6381 38.835,60.9808 55.9847,72.6384 17.008,11.693 35.8586,17.6812 56.339,17.6812 29.6577,0 59.6698,-9.49614 90.355,-28.3467l-30.3309 -81.6384c-21.3663,12.8269 -42.8389,19.1694 -64.347,19.1694 -19.3466,0 -36.4964,-5.8465 -51.839,-17.3623 -15.3426,-11.6576 -26.1498,-27.638 -32.6695,-48.1539 -9.81504,-31.1813 -14.6694,-65.3391 -14.6694,-102.509l0 -271.49 -87.8393 0z"/></glyph>
   <glyph unicode="ã" horiz-adv-x="556"><path d="M404.33 63.9926c-32.6695,-27.6734 -63.9926,-47.1618 -94.0047,-58.6422 -30.1538,-11.3387 -62.5044,-17.008 -96.9811,-17.008 -57.0123,0 -100.666,13.819 -131.351,41.6696 -30.5081,27.8152 -45.8153,63.4966 -45.8153,106.654 0,25.512 5.66934,48.65 17.3269,69.662 11.4804,21.012 26.6459,37.8428 45.3193,50.4925 18.8505,12.6851 39.8271,22.3584 63.3548,28.8427 17.1497,4.50004 43.1578,9.00007 77.9888,13.1812 71.0084,8.504 123.343,18.4962 156.828,30.3309 0.354333,11.9765 0.496067,19.6655 0.496067,22.8191 0,35.8231 -8.32684,61.158 -24.9805,75.6856 -22.3584,19.9844 -55.843,29.8349 -100.028,29.8349 -41.3153,0 -71.8234,-7.19297 -91.6661,-21.6852 -19.6655,-14.4922 -34.1577,-40.146 -43.6539,-76.9967l-85.8196 11.8347c7.83077,36.6735 20.6576,66.5084 38.4806,89.0086 17.8584,22.6419 43.8311,40.146 77.6699,52.3351 33.8388,12.1536 72.9927,18.319 117.674,18.319 44.3271,0 80.1502,-5.315 107.824,-15.6615 27.6734,-10.4883 48.0122,-23.4923 61.158,-39.331 13.004,-15.8387 22.0041,-35.6814 27.3545,-59.8469 2.83467,-14.9883 4.32287,-41.9885 4.32287,-81.0006l0 -117.143c0,-81.851 1.84253,-133.513 5.66934,-155.021 3.68507,-21.6498 11.1615,-42.4846 22.1813,-62.3273l-91.8432 0c-9.00007,18.1773 -14.9883,39.5082 -17.5041,63.9926zm-7.3347 196.336c-31.9963,-13.1458 -79.8313,-24.1655 -143.505,-33.3428 -36.142,-5.13784 -61.8312,-10.9843 -76.6423,-17.4686 -15.0237,-6.51974 -26.6813,-16.0159 -34.6892,-28.701 -8.14967,-12.4725 -12.3308,-26.327 -12.3308,-41.6342 0,-23.5277 9.00007,-43.0161 26.6813,-58.6776 17.6458,-15.5198 43.6539,-23.3506 77.8116,-23.3506 33.8388,0 64.0281,7.3347 90.355,22.1813 26.327,14.8466 45.8153,35.1499 58.1461,60.8391 9.49614,19.8427 14.1733,49.1461 14.1733,87.8393l0 32.3152zm-285.168 334.845c-0.3189,33.8388 8.8229,60.9808 27.8506,81.1424 18.4962,20.197 42.1657,30.1892 71.1502,30.1892 20.1616,0 47.6579,-8.68117 82.4888,-26.327 19.3466,-9.85047 34.5121,-14.6694 46.0279,-14.6694 10.3111,0 18.319,2.83467 23.8112,8.504 5.66934,5.81107 9.49614,16.9726 11.8347,33.9806l63.3548 0c-0.8504,-37.1696 -10.3465,-64.9848 -28.0278,-83.481 -17.6458,-18.4962 -40.3232,-27.8506 -67.6423,-27.8506 -20.5159,0 -47.5161,9.17724 -81.0006,27.3545 -21.8269,11.6576 -37.8428,17.6458 -47.835,17.6458 -11.1615,0 -20.0198,-4.00397 -26.823,-11.8347 -7.19297,-7.83077 -10.7009,-19.3112 -10.3465,-34.6538l-64.843 0z"/></glyph>
   <glyph unicode="ç" horiz-adv-x="500"><path d="M404.33 189.994l86.3511 -11.3387c-9.3544,-59.4926 -33.5199,-106.158 -72.5321,-139.82 -38.7995,-33.6617 -86.6345,-50.4925 -143.328,-50.4925 -70.8313,0 -127.985,23.1734 -171.001,69.4848 -43.1578,46.3468 -64.8076,112.855 -64.8076,199.49 0,56.0201 9.31897,105.024 27.8152,147.013 18.6734,41.9885 46.8429,73.4888 84.8274,94.5007 37.8428,21.012 79.1935,31.5002 123.662,31.5002 56.339,0 102.509,-14.3151 138.19,-42.8389 35.8231,-28.4884 58.8194,-68.8116 68.9887,-121.324l-85.5007 -13.1812c-8.14967,34.831 -22.5002,61.0162 -43.1578,78.662 -20.6576,17.5041 -45.6736,26.3624 -75.0124,26.3624 -44.3271,0 -80.3274,-15.8387 -108.001,-47.6933 -27.6734,-31.642 -41.4925,-81.8156 -41.4925,-150.485 0,-69.662 13.3229,-120.332 40.1814,-152.009 26.6459,-31.5002 61.4769,-47.339 104.493,-47.339 34.4766,0 63.1777,10.6654 86.3156,31.8546 23.1734,21.1537 37.8428,53.6461 44.0082,97.6543zm-203.671 -255.333l25.3348 86.3511 65.5163 0 -16.193 -52.1933c27.6734,-3.33073 48.5083,-11.8347 62.5044,-25.6537 13.9962,-13.819 21.012,-29.1616 21.012,-46.1697 0,-24.3427 -11.6576,-45.9925 -35.1499,-64.6659 -23.5277,-18.6734 -58.6776,-27.9923 -106.017,-27.9923 -26.6813,0 -49.9965,1.84253 -70.3352,5.8465l5.49217 57.154c20.8348,-1.34647 36.1775,-2.0197 45.8508,-2.0197 30.6498,0 52.1579,4.18114 64.4887,12.6851 9.31897,6.4843 14.1733,14.4922 14.1733,23.9884 0,5.8465 -1.84253,11.0198 -5.66934,15.5198 -3.68507,4.64177 -10.6654,8.504 -20.6576,11.8347 -10.1694,3.15357 -27.0002,4.9961 -50.3508,5.315z"/></glyph>
   <glyph unicode="á" horiz-adv-x="556"><path d="M404.33 63.9926c-32.6695,-27.6734 -63.9926,-47.1618 -94.0047,-58.6422 -30.1538,-11.3387 -62.5044,-17.008 -96.9811,-17.008 -57.0123,0 -100.666,13.819 -131.351,41.6696 -30.5081,27.8152 -45.8153,63.4966 -45.8153,106.654 0,25.512 5.66934,48.65 17.3269,69.662 11.4804,21.012 26.6459,37.8428 45.3193,50.4925 18.8505,12.6851 39.8271,22.3584 63.3548,28.8427 17.1497,4.50004 43.1578,9.00007 77.9888,13.1812 71.0084,8.504 123.343,18.4962 156.828,30.3309 0.354333,11.9765 0.496067,19.6655 0.496067,22.8191 0,35.8231 -8.32684,61.158 -24.9805,75.6856 -22.3584,19.9844 -55.843,29.8349 -100.028,29.8349 -41.3153,0 -71.8234,-7.19297 -91.6661,-21.6852 -19.6655,-14.4922 -34.1577,-40.146 -43.6539,-76.9967l-85.8196 11.8347c7.83077,36.6735 20.6576,66.5084 38.4806,89.0086 17.8584,22.6419 43.8311,40.146 77.6699,52.3351 33.8388,12.1536 72.9927,18.319 117.674,18.319 44.3271,0 80.1502,-5.315 107.824,-15.6615 27.6734,-10.4883 48.0122,-23.4923 61.158,-39.331 13.004,-15.8387 22.0041,-35.6814 27.3545,-59.8469 2.83467,-14.9883 4.32287,-41.9885 4.32287,-81.0006l0 -117.143c0,-81.851 1.84253,-133.513 5.66934,-155.021 3.68507,-21.6498 11.1615,-42.4846 22.1813,-62.3273l-91.8432 0c-9.00007,18.1773 -14.9883,39.5082 -17.5041,63.9926zm-7.3347 196.336c-31.9963,-13.1458 -79.8313,-24.1655 -143.505,-33.3428 -36.142,-5.13784 -61.8312,-10.9843 -76.6423,-17.4686 -15.0237,-6.51974 -26.6813,-16.0159 -34.6892,-28.701 -8.14967,-12.4725 -12.3308,-26.327 -12.3308,-41.6342 0,-23.5277 9.00007,-43.0161 26.6813,-58.6776 17.6458,-15.5198 43.6539,-23.3506 77.8116,-23.3506 33.8388,0 64.0281,7.3347 90.355,22.1813 26.327,14.8466 45.8153,35.1499 58.1461,60.8391 9.49614,19.8427 14.1733,49.1461 14.1733,87.8393l0 32.3152zm-171.001 322.656l65.0202 136.666 115.158 0 -107.328 -136.666 -72.851 0z"/></glyph>
   <glyph unicode="í" horiz-adv-x="277"><path d="M96.6622 0l0 518.496 87.8393 0 0 -518.496 -87.8393 0zm-4.50004 582.985l65.0202 136.666 115.158 0 -107.328 -136.666 -72.851 0z"/></glyph>
   <glyph unicode="ó" horiz-adv-x="556"><path d="M33.1656 259.337c0,95.9889 26.6813,167.175 80.1502,213.344 44.5043,38.3035 98.859,57.6501 163.029,57.6501 71.3273,0 129.651,-23.3151 174.828,-70.158 45.3193,-46.6657 67.8194,-111.19 67.8194,-193.502 0,-66.8273 -9.9922,-119.34 -29.9766,-157.501 -20.0198,-38.3389 -49.1815,-67.9966 -87.3432,-89.1857 -38.3389,-21.1537 -80.0085,-31.642 -125.328,-31.642 -72.4966,0 -131.174,23.1734 -175.997,69.8391 -44.8586,46.4886 -67.1816,113.493 -67.1816,201.155zm90.3196 0c0,-66.5084 14.5277,-116.186 43.5122,-149.174 29.0199,-33.1656 65.5163,-49.6776 109.347,-49.6776 43.6539,0 79.9731,16.6891 108.993,49.8547 28.8427,33.1656 43.335,83.8353 43.335,151.832 0,64.1698 -14.4922,112.82 -43.6893,145.844 -29.1616,32.9884 -65.3037,49.5004 -108.639,49.5004 -43.8311,0 -80.3274,-16.5119 -109.347,-49.3587 -28.9845,-32.8113 -43.5122,-82.4888 -43.5122,-148.82zm104.032 323.648l64.9848 136.666 115.158 0 -107.328 -136.666 -72.8155 0z"/></glyph>
   <glyph unicode="ô" horiz-adv-x="556"><path d="M33.1656 259.337c0,95.9889 26.6813,167.175 80.1502,213.344 44.5043,38.3035 98.859,57.6501 163.029,57.6501 71.3273,0 129.651,-23.3151 174.828,-70.158 45.3193,-46.6657 67.8194,-111.19 67.8194,-193.502 0,-66.8273 -9.9922,-119.34 -29.9766,-157.501 -20.0198,-38.3389 -49.1815,-67.9966 -87.3432,-89.1857 -38.3389,-21.1537 -80.0085,-31.642 -125.328,-31.642 -72.4966,0 -131.174,23.1734 -175.997,69.8391 -44.8586,46.4886 -67.1816,113.493 -67.1816,201.155zm90.3196 0c0,-66.5084 14.5277,-116.186 43.5122,-149.174 29.0199,-33.1656 65.5163,-49.6776 109.347,-49.6776 43.6539,0 79.9731,16.6891 108.993,49.8547 28.8427,33.1656 43.335,83.8353 43.335,151.832 0,64.1698 -14.4922,112.82 -43.6893,145.844 -29.1616,32.9884 -65.3037,49.5004 -108.639,49.5004 -43.8311,0 -80.3274,-16.5119 -109.347,-49.3587 -28.9845,-32.8113 -43.5122,-82.4888 -43.5122,-148.82zm153.852 406.669l-55.1697 -83.0203 -100.666 0 105.485 136.666 93.8629 0 109.808 -136.666 -99.674 0 -53.6461 83.0203z"/></glyph>
  </font>
</defs>
</svg>
